# xmcd CD database file
#
# Track frame offsets:
#	182
#	144145
#	261495
#
# Disc length: 4085 seconds
#
# Revision: 0
# Processed by: cddbd v1.5.2PL0 Copyright (c) Steve Scherf et al.
# Submitted via: CDex 1.70beta2
#
DISCID=240ff303
DTITLE=Nigel Charles Halfhide - Colours of Silence
DYEAR=1989
DGENRE=New Age
TTITLE0=Voice and Harmonium
TTITLE1=Voices and Tambura
TTITLE2=Voices and Tambura
EXTD=YEAR: 1989
EXTT0=
EXTT1=
EXTT2=
PLAYORDER=
